<?xml version="1.0" encoding="utf-8"?>
<!-- Generator: Adobe Illustrator 16.2.1, SVG Export Plug-In . SVG Version: 6.00 Build 0)  -->
<!DOCTYPE svg PUBLIC "-//W3C//DTD SVG 1.1//EN" "http://www.w3.org/Graphics/SVG/1.1/DTD/svg11.dtd">
<svg version="1.1" id="Layer_1" xmlns="http://www.w3.org/2000/svg" xmlns:xlink="http://www.w3.org/1999/xlink" x="0px" y="0px"
	 width="131px" height="145px" viewBox="0 0 131 145" enable-background="new 0 0 131 145" xml:space="preserve">
<g>
	<path fill="#C3C3C3" d="M11.747,42.534v59.187l53.512,29.702l53.511-29.702V42.534l-53.511-29.7L11.747,42.534z M60.874,117.265
		c0,0.272-0.157,0.526-0.415,0.667c-0.135,0.07-0.288,0.108-0.438,0.108c-0.139,0-0.277-0.03-0.404-0.094l-39.76-21.065
		c-0.277-0.137-0.449-0.4-0.449-0.686v-4.874c0-0.271,0.158-0.523,0.416-0.664c0.134-0.072,0.286-0.11,0.438-0.11
		c0.138,0,0.278,0.03,0.405,0.093l33.782,18.175V72.079L33.387,60.401c-0.294-0.128-0.483-0.398-0.484-0.694l-0.026-5.534
		c-0.001-0.267,0.149-0.514,0.396-0.658c0.138-0.08,0.297-0.121,0.457-0.121c0.125,0,0.25,0.026,0.366,0.076l26.289,14.635
		c0.299,0.127,0.489,0.4,0.489,0.699V117.265z M68.901,69.692c0-0.315,0.176-0.605,0.457-0.754l4.72-2.472
		c0.124-0.066,0.259-0.098,0.396-0.098c0.153,0,0.304,0.04,0.441,0.122c0.256,0.154,0.412,0.432,0.412,0.73v40.607l32.315-17.481
		c0.125-0.067,0.267-0.101,0.405-0.101c0.152,0,0.305,0.039,0.438,0.121c0.259,0.151,0.417,0.429,0.417,0.73v5.314
		c0,0.313-0.174,0.602-0.447,0.752l-38.293,20.771c-0.127,0.073-0.268,0.106-0.406,0.106c-0.152,0-0.302-0.042-0.438-0.122
		c-0.257-0.153-0.417-0.432-0.417-0.731V69.692z"/>
	<path fill="#C3C3C3" d="M130.221,35.422L65.709-0.383C65.569-0.462,65.412-0.5,65.258-0.5c-0.155,0-0.311,0.038-0.453,0.117
		L0.297,35.422c-0.297,0.164-0.48,0.475-0.48,0.814v71.782c0,0.339,0.184,0.652,0.48,0.815l64.507,35.806
		c0.143,0.079,0.298,0.118,0.453,0.118c0.154,0,0.312-0.039,0.452-0.118l64.511-35.806c0.294-0.163,0.48-0.477,0.48-0.815V36.236
		C130.7,35.897,130.515,35.586,130.221,35.422z M125.197,105.002c0,0.31-0.169,0.595-0.44,0.744l-59.083,32.798
		c-0.13,0.07-0.273,0.106-0.415,0.106s-0.285-0.036-0.415-0.106L5.76,105.746c-0.27-0.149-0.439-0.435-0.439-0.744V39.255
		c0-0.309,0.169-0.595,0.439-0.745L64.844,5.715c0.13-0.071,0.272-0.108,0.415-0.108s0.286,0.038,0.415,0.108l59.083,32.795
		c0.271,0.148,0.438,0.435,0.44,0.745V105.002z"/>
</g>
</svg>
